<svg xmlns="http://www.w3.org/2000/svg" xmlns:xlink="http://www.w3.org/1999/xlink" contentStyleType="text/css" height="689px" preserveAspectRatio="none" style="width:691px;height:689px;background:#F9F9F9;" version="1.1" viewBox="0 0 691 689" width="691px" zoomAndPan="magnify"><defs/><g><rect fill="#F9F9F9" height="689" style="stroke:none;stroke-width:1.0;" width="691" x="0" y="0"/><text fill="#000000" font-family="sans-serif" font-size="14" font-weight="bold" lengthAdjust="spacing" textLength="105" x="286" y="22.9951">Bug Lifecycle</text><!--cluster New--><g id="cluster_New"><path d="M19.5,216.5669 L168.5,216.5669 A12.5,12.5 0 0 1 181,229.0669 L181,237.8637 L7,237.8637 L7,229.0669 A12.5,12.5 0 0 1 19.5,216.5669 " fill="#DDDDDD" style="stroke:#DDDDDD;stroke-width:1.0;"/><rect fill="none" height="92.13" rx="12.5" ry="12.5" style="stroke:#333333;stroke-width:0.5;" width="174" x="7" y="216.5669"/><line style="stroke:#333333;stroke-width:0.5;" x1="7" x2="181" y1="237.8637" y2="237.8637"/><text fill="#000000" font-family="Arial" font-size="14" lengthAdjust="spacing" textLength="30" x="79" y="233.562">New</text></g><!--cluster Retest--><g id="cluster_Retest"><path d="M232.5,44.2969 L438.5,44.2969 A12.5,12.5 0 0 1 451,56.7969 L451,65.5938 L220,65.5938 L220,56.7969 A12.5,12.5 0 0 1 232.5,44.2969 " fill="#DDDDDD" style="stroke:#DDDDDD;stroke-width:1.0;"/><rect fill="none" height="107.27" rx="12.5" ry="12.5" style="stroke:#333333;stroke-width:0.5;" width="231" x="220" y="44.2969"/><line style="stroke:#333333;stroke-width:0.5;" x1="220" x2="451" y1="65.5938" y2="65.5938"/><text fill="#000000" font-family="Arial" font-size="14" lengthAdjust="spacing" textLength="46" x="312.5" y="61.292">Retest</text></g><g id="elem_GMN5"><path d="M30.5,259.5669 L30.5,284.6997 L137.5,284.6997 L137.5,269.5669 L127.5,259.5669 L30.5,259.5669 " fill="#FEFFDD" style="stroke:#181818;stroke-width:0.5;"/><path d="M127.5,259.5669 L127.5,269.5669 L137.5,269.5669 L127.5,259.5669 " fill="#FEFFDD" style="stroke:#181818;stroke-width:1.0;"/><text fill="#000000" font-family="sans-serif" font-size="13" lengthAdjust="spacing" textLength="86" x="36.5" y="276.6338">Bug is logged</text></g><g id="elem_GMN16"><path d="M244,87.2969 L244,127.5625 L408,127.5625 L408,97.2969 L398,87.2969 L244,87.2969 " fill="#FEFFDD" style="stroke:#181818;stroke-width:0.5;"/><path d="M398,87.2969 L398,97.2969 L408,97.2969 L398,87.2969 " fill="#FEFFDD" style="stroke:#181818;stroke-width:1.0;"/><text fill="#000000" font-family="sans-serif" font-size="13" lengthAdjust="spacing" textLength="131" x="250" y="104.3638">Check for regression</text><text fill="#000000" font-family="sans-serif" font-size="13" lengthAdjust="spacing" textLength="143" x="250" y="119.4966">and confirm resolution</text></g><ellipse cx="173" cy="107.4269" fill="#222222" rx="10" ry="10" style="stroke:#222222;stroke-width:1.0;"/><g id="Assigned"><rect fill="#DDDDDD" height="50" rx="12.5" ry="12.5" style="stroke:#333333;stroke-width:0.5;" width="84" x="299" y="379.6969"/><line style="stroke:#333333;stroke-width:0.5;" x1="299" x2="383" y1="405.9938" y2="405.9938"/><text fill="#000000" font-family="Arial" font-size="14" lengthAdjust="spacing" textLength="64" x="309" y="397.692">Assigned</text></g><g id="Open"><rect fill="#DDDDDD" height="50" rx="12.5" ry="12.5" style="stroke:#333333;stroke-width:0.5;" width="58" x="423" y="506.6969"/><line style="stroke:#333333;stroke-width:0.5;" x1="423" x2="481" y1="532.9938" y2="532.9938"/><text fill="#000000" font-family="Arial" font-size="14" lengthAdjust="spacing" textLength="38" x="433" y="524.692">Open</text></g><g id="Fixed"><rect fill="#DDDDDD" height="50" rx="12.5" ry="12.5" style="stroke:#333333;stroke-width:0.5;" width="56" x="500" y="633.6969"/><line style="stroke:#333333;stroke-width:0.5;" x1="500" x2="556" y1="659.9938" y2="659.9938"/><text fill="#000000" font-family="Arial" font-size="14" lengthAdjust="spacing" textLength="36" x="510" y="651.692">Fixed</text></g><g id="Closed"><rect fill="#DDDDDD" height="50" rx="12.5" ry="12.5" style="stroke:#333333;stroke-width:0.5;" width="68" x="409" y="247.1269"/><line style="stroke:#333333;stroke-width:0.5;" x1="409" x2="477" y1="273.4238" y2="273.4238"/><text fill="#000000" font-family="Arial" font-size="14" lengthAdjust="spacing" textLength="48" x="419" y="265.122">Closed</text></g><g id="Reopened"><rect fill="#DDDDDD" height="50" rx="12.5" ry="12.5" style="stroke:#333333;stroke-width:0.5;" width="93" x="274.5" y="247.1269"/><line style="stroke:#333333;stroke-width:0.5;" x1="274.5" x2="367.5" y1="273.4238" y2="273.4238"/><text fill="#000000" font-family="Arial" font-size="14" lengthAdjust="spacing" textLength="73" x="284.5" y="265.122">Reopened</text></g><!--link *start* to New--><g id="link_*start*_New"><path d="M173,117.6469 C173,134.5869 173,172.0319 173,205.6944 C173,207.7983 173,209.8874 173,211.9558 C173,212.9901 173,214.0191 173,215.0422 C173,215.298 173,209.5534 173,209.8084 " fill="none" id="*start*-to-New" style="stroke:#181818;stroke-width:1.0;"/><polygon fill="#181818" points="173,215.8084,177,206.8084,173,210.8084,169,206.8084,173,215.8084" style="stroke:#181818;stroke-width:1.0;"/><text fill="#000000" font-family="sans-serif" font-size="13" lengthAdjust="spacing" textLength="84" x="174" y="188.6338">Bug reported</text></g><!--link New to GMN5--><g id="link_New_GMN5"><path d="M172.18,272.1269 C160.75,272.1269 149.32,272.1269 137.89,272.1269 " fill="none" id="New-GMN5" style="stroke:#181818;stroke-width:1.0;stroke-dasharray:7.0,7.0;"/></g><!--link New to Assigned--><g id="link_New_Assigned"><path d="M175.7303,308.7489 C175.7546,308.8749 175.779,309.0009 175.8037,309.127 C176.1985,311.1451 176.6454,313.1898 177.1508,315.2445 C178.1618,319.3538 179.4071,323.5028 180.9395,327.5581 C184.0044,335.6687 188.2175,343.4044 194,349.6969 C221.14,379.2269 259.8991,391.5711 292.8891,397.6411 " fill="none" id="New-to-Assigned" style="stroke:#181818;stroke-width:1.0;"/><polygon fill="#181818" points="298.79,398.7269,290.6624,393.1643,293.8725,397.8221,289.2148,401.0322,298.79,398.7269" style="stroke:#181818;stroke-width:1.0;"/><text fill="#000000" font-family="sans-serif" font-size="13" lengthAdjust="spacing" textLength="126" x="195" y="345.7638">Assign to developer</text></g><!--link Assigned to Open--><g id="link_Assigned_Open"><path d="M362.67,430.0969 C382.22,452.1169 406.8656,479.8708 426.4056,501.8708 " fill="none" id="Assigned-to-Open" style="stroke:#181818;stroke-width:1.0;"/><polygon fill="#181818" points="430.39,506.3569,427.4041,496.9716,427.0697,502.6185,421.4227,502.2841,430.39,506.3569" style="stroke:#181818;stroke-width:1.0;"/><text fill="#000000" font-family="sans-serif" font-size="13" lengthAdjust="spacing" textLength="127" x="404.15" y="472.7638">Investigation begins</text></g><!--link Open to Fixed--><g id="link_Open_Fixed"><path d="M455.11,557.0069 C457.75,571.3569 462.51,589.4469 471,603.6969 C478.32,615.9969 484.7208,623.3287 495.0308,632.3787 " fill="none" id="Open-to-Fixed" style="stroke:#181818;stroke-width:1.0;"/><polygon fill="#181818" points="499.54,636.3369,495.4149,627.3935,495.7823,633.0384,490.1374,633.4058,499.54,636.3369" style="stroke:#181818;stroke-width:1.0;"/><text fill="#000000" font-family="sans-serif" font-size="13" lengthAdjust="spacing" textLength="97" x="472" y="599.7638">Bug is resolved</text></g><!--link Fixed to Retest--><g id="link_Fixed_Retest"><path d="M552.29,633.4669 C560.08,624.6669 568.18,614.2669 574,603.6969 C589.93,574.7569 596,565.7369 596,532.6969 C596,271.1269 596,271.1269 596,271.1269 C596,227.5469 600.78,209.9469 574,175.5669 C554.215,150.1619 522.1725,133.5019 494.7312,123.1331 C481.0106,117.9487 468.4403,114.3372 459.1277,111.9917 C456.7995,111.4054 454.6749,110.8981 452.7869,110.4652 C452.3149,110.357 451.8577,110.2534 451.4157,110.1544 C451.3053,110.1297 457.0522,111.4097 456.9436,111.3855 " fill="none" id="Fixed-to-Retest" style="stroke:#181818;stroke-width:1.0;"/><polygon fill="#181818" points="451.0872,110.081,459.0022,115.9421,455.9676,111.1681,460.7416,108.1334,451.0872,110.081" style="stroke:#181818;stroke-width:1.0;"/><text fill="#000000" font-family="sans-serif" font-size="13" lengthAdjust="spacing" textLength="86" x="597" y="409.2638">QA verifies fix</text></g><!--link Retest to GMN16--><g id="link_Retest_GMN16"><path d="M442.19,107.4269 C430.88,107.4269 419.57,107.4269 408.27,107.4269 " fill="none" id="Retest-GMN16" style="stroke:#181818;stroke-width:1.0;stroke-dasharray:7.0,7.0;"/></g><!--link Retest to Closed--><g id="link_Retest_Closed"><path d="M440.78,151.8033 C440.7609,152.2682 440.7419,152.7341 440.7231,153.2008 C440.4225,160.6675 440.1625,168.3344 440,175.5669 C439.46,199.7969 440.1997,221.4749 441.1997,240.7849 " fill="none" id="Retest-to-Closed" style="stroke:#181818;stroke-width:1.0;"/><polygon fill="#181818" points="441.51,246.7769,445.0392,237.582,441.2514,241.7836,437.0499,237.9958,441.51,246.7769" style="stroke:#181818;stroke-width:1.0;"/><text fill="#000000" font-family="sans-serif" font-size="13" lengthAdjust="spacing" textLength="128" x="441" y="188.6338">Verified successfully</text></g><!--link Retest to Reopened--><g id="link_Retest_Reopened"><path d="M435.7664,151.6048 C432.9994,157.7325 429.2025,163.3669 424,167.5669 C409.93,178.9269 356.58,163.6169 343,175.5669 C323.06,193.1069 319.231,218.7569 319.301,240.8069 " fill="none" id="Retest-to-Reopened" style="stroke:#181818;stroke-width:1.0;"/><polygon fill="#181818" points="319.32,246.8069,323.2914,237.7942,319.3041,241.8069,315.2914,237.8196,319.32,246.8069" style="stroke:#181818;stroke-width:1.0;"/><text fill="#000000" font-family="sans-serif" font-size="13" lengthAdjust="spacing" textLength="87" x="344" y="188.6338">Issue persists</text></g><!--link Reopened to Assigned--><g id="link_Reopened_Assigned"><path d="M324.71,297.3869 C328.31,320.8369 332.813,350.2358 336.393,373.6458 " fill="none" id="Reopened-to-Assigned" style="stroke:#181818;stroke-width:1.0;"/><polygon fill="#181818" points="337.3,379.5769,339.8935,370.0756,336.5442,374.6343,331.9855,371.285,337.3,379.5769" style="stroke:#181818;stroke-width:1.0;"/><text fill="#000000" font-family="sans-serif" font-size="13" lengthAdjust="spacing" textLength="146" x="333.2" y="345.7638">Re-assign to developer</text></g><!--SRC=[PL31IWCn4BtdAmQy2Js8bg87eUrQA4Z55hoeXtHtDXsQ9aickxPA_zt9xbfApLusxxsyD_CYHOimgGqyKudv8RUe56_9LJhe7QnrlZN1rwwOUki3N9NtwJjJSDGHuKS1hA8EiPVDPbas70huT7ev6cNPQ2JGvD8pQqzYV2WmzEXjUmITUHSNUeSm3gHj3wpe6-7cJXsLUh_-XC7W4HRu1G_jAW4h7o8MiaaxNMBIXCxB9P3Pn4v73DOR8yAZIfhaCcOcux0Gg-uNeeS26xI-mg1ETDA-LEX4DtSDSYIZ8ta7QpJaMBLS4iretxhrWG7PsqOYEpmfbXZblKXUnz1We9AGeQJzt_WzVxd1T8Fv5ahfAg0HMvRq3wTT0Rbt9OLTbrMdgL9FlKrAd5hFxL1lNLm1NEUvM9IrjOTpvH9bxQwEENED82KmSUJarrCNjIrneFytzmi0]--></g></svg>